<svg xmlns="http://www.w3.org/2000/svg" viewBox="0 0 2000 2000"><defs><style>.cls-1{font-size:132.75px;}.cls-1,.cls-2{fill:#061a24;font-family:Poppins-Bold, Poppins;font-weight:700;}.cls-2{font-size:62.32px;letter-spacing:0.03em;}.cls-3{fill:#28343e;}.cls-4,.cls-7{fill:none;stroke-linecap:round;stroke-width:9.43px;}.cls-4{stroke:#ffdfb6;stroke-linejoin:round;}.cls-5{fill:#28323e;}.cls-6{fill:#ffdfb9;}.cls-7{stroke:#ffdfb9;stroke-miterlimit:10;}.cls-8{fill:#ffdfb6;}</style></defs><g id="Layer_1" data-name="Layer 1"><text class="cls-1" transform="translate(412.69 1081.14) scale(0.98 1)">HAWK</text><text class="cls-1" transform="translate(860.12 1081.14) scale(0.98 1)">NAVIGATOR</text><text class="cls-1" transform="translate(1665.31 1081.14) scale(0.98 1)">INC.</text><text class="cls-2" transform="translate(412.69 1152.55) scale(0.98 1)">FLYING PARCELS, RUSHING EMOTIONS</text></g><g id="Layer_2" data-name="Layer 2"><rect class="cls-3" x="67.66" y="964.3" width="175.48" height="117.8" rx="7.56"/><path class="cls-4" d="M135.69,1011c.64,0,19.06,12.6,19.06,12.6l19.72-11.8"/><path class="cls-4" d="M135.69,1028.71c.64,0,19.06,12.61,19.06,12.61l19.72-11.8"/><path class="cls-5" d="M158.47,1134.85c0,.17,0,.34,0,.51l-57.67-.24a2.44,2.44,0,0,1,0-.27,28.85,28.85,0,1,1,57.69,0Z"/><path class="cls-5" d="M315,1134.85c0,.44,0,.88,0,1.31l-15.89-.12-25.58-.2-16.15-.13c0-.28,0-.57,0-.86a28.84,28.84,0,1,1,57.68,0Z"/><path class="cls-5" d="M355,1114.27V1129a7.3,7.3,0,0,1-7.3,7.3H325.79l-2.7,0q0-.69,0-1.38a36.92,36.92,0,1,0-73.84,0c0,.27,0,.54,0,.8h-.7l-80.87-.24h-1.18c0-.18,0-.37,0-.55a36.93,36.93,0,1,0-73.85,0v.24H73a6.46,6.46,0,0,1-6.44-6.45V1115a6.3,6.3,0,0,1,6.31-6.29h6.54l.17-12.7a5.27,5.27,0,0,1,5.26-5.18l168,.1.29-80.41a12.37,12.37,0,0,1,12.37-12.34h41.26a15.56,15.56,0,0,1,14.1,9l20.53,44s7.76,2.79,7.76,7.15v13.51s-9.54-1.39-9,5.64,9.37,4.61,9.37,4.61v16.48s-10.1-1.7-9.13,6.06c0,0-1.61,5.57,9.13,4.35h.1A5.3,5.3,0,0,1,355,1114.27Z"/><path class="cls-6" d="M272.87,1019.56v32.21a4.31,4.31,0,0,0,4.31,4.31H319a3.17,3.17,0,0,0,2.87-4.51L307,1019.82a4.31,4.31,0,0,0-3.91-2.49h-26.7a4.15,4.15,0,0,0-1.4.23C274.13,1017.87,272.87,1018.5,272.87,1019.56Z"/><line class="cls-7" x1="187.27" y1="1113.36" x2="230.9" y2="1113.36"/><rect class="cls-6" x="271.44" y="1071.93" width="19.21" height="10.16" rx="3.77"/><path class="cls-5" d="M315,1134.85c0,.44,0,.88,0,1.31a28.83,28.83,0,0,1-57.62-.45c0-.28,0-.57,0-.86a28.84,28.84,0,1,1,57.68,0Z"/><circle class="cls-8" cx="286.32" cy="1134.85" r="12.85"/><path class="cls-5" d="M158.47,1134.85c0,.17,0,.34,0,.51a28.84,28.84,0,0,1-57.67-.24,2.44,2.44,0,0,1,0-.27,28.85,28.85,0,1,1,57.69,0Z"/><circle class="cls-8" cx="129.63" cy="1134.85" r="12.85"/></g></svg>